<svg width="32" height="32" viewBox="0 0 32 32" xmlns="http://www.w3.org/2000/svg">
<path d="M31 23.7904C31 27.7644 27.7644 31 23.7904 31H8.20962C4.23562 31 1 27.7644 1 23.7904V8.20962C1 4.23562 4.23562 1 8.20962 1H23.7987C27.7727 1 31.0083 4.23562 31.0083 8.20962V23.7904H31Z" stroke="#413033" stroke-miterlimit="10"/>
<path d="M16 23.301C11.9763 23.301 8.69916 20.0239 8.69916 16.0001C8.69916 11.9763 11.9763 8.69922 16 8.69922C20.0238 8.69922 23.3009 11.9763 23.3009 16.0001C23.3009 20.0239 20.0238 23.301 16 23.301Z" stroke="#413033" stroke-miterlimit="10"/>
<path d="M25.5161 6.90693C25.1013 6.90693 24.7611 6.56677 24.7611 6.15195C24.7611 5.73713 25.1013 5.39697 25.5161 5.39697C25.9309 5.39697 26.2711 5.73713 26.2711 6.15195C26.2628 6.56677 25.9309 6.90693 25.5161 6.90693Z" stroke="#413033" stroke-miterlimit="10"/>
</svg>
