<svg width="102" height="102" viewBox="0 0 102 102" fill="none" xmlns="http://www.w3.org/2000/svg">
<path d="M101 76.9679C101 90.2146 90.2146 101 76.9679 101H25.0321C11.7854 101 1 90.2146 1 76.9679V25.0321C1 11.7854 11.7854 1 25.0321 1H76.9956C90.2422 1 101.028 11.7854 101.028 25.0321V76.9679H101Z" stroke="white" stroke-miterlimit="10"/>
<path d="M51 75.3366C37.5874 75.3366 26.6637 64.413 26.6637 51.0003C26.6637 37.5877 37.5874 26.6641 51 26.6641C64.4126 26.6641 75.3363 37.5877 75.3363 51.0003C75.3363 64.413 64.4126 75.3366 51 75.3366Z" stroke="white" stroke-miterlimit="10"/>
<path d="M82.7201 20.6904C81.3374 20.6904 80.2036 19.5566 80.2036 18.1738C80.2036 16.7911 81.3374 15.6572 82.7201 15.6572C84.1029 15.6572 85.2367 16.7911 85.2367 18.1738C85.2091 19.5566 84.1029 20.6904 82.7201 20.6904Z" stroke="white" stroke-miterlimit="10"/>
</svg>
