<svg width="30" height="30" viewBox="0 0 30 30" fill="none" xmlns="http://www.w3.org/2000/svg">
<g clip-path="url(#clip0)">
<path d="M28.2141 2.83108L27.1455 1.76249C26.1783 0.795312 24.9516 0.193583 23.5977 0.0222138C23.357 -0.00894956 23.1363 0.16242 23.1058 0.403628C23.0752 0.644777 23.2461 0.865034 23.4872 0.895551C24.6454 1.04215 25.6952 1.55714 26.523 2.385L27.5916 3.45359C29.6297 5.49165 29.6297 8.80776 27.5916 10.8458L23.8514 14.586C22.8416 15.5959 21.4972 16.1123 20.1475 16.1122C19.1948 16.1121 18.2396 15.854 17.398 15.3311L19.2947 13.4345C19.5755 13.5008 19.863 13.5341 20.1505 13.5341C20.7417 13.5341 21.332 13.3952 21.8593 13.1229C22.0753 13.0114 22.1599 12.7459 22.0484 12.5299C21.9369 12.3139 21.6713 12.2292 21.4554 12.3407C21.0084 12.5715 20.502 12.6767 20.0009 12.6503C20.1765 12.3596 20.2704 12.0256 20.2704 11.6772C20.2704 11.1732 20.0742 10.6994 19.7178 10.343L19.6796 10.3048C19.0425 9.66778 18.0599 9.58286 17.3302 10.0488C17.2645 9.22967 17.5568 8.41162 18.1512 7.81717L20.8228 5.14563C21.3581 4.61027 22.0699 4.31542 22.8269 4.31542C23.5839 4.31542 24.2957 4.61021 24.831 5.14563C25.3663 5.68092 25.6612 6.39263 25.6612 7.14971C25.6612 7.90672 25.3664 8.61849 24.831 9.15379L22.939 11.0458C22.767 11.2177 22.767 11.4964 22.9389 11.6682C23.1108 11.8401 23.3895 11.8402 23.5614 11.6683L25.4535 9.77629C26.155 9.07468 26.5414 8.14183 26.5414 7.14965C26.5414 6.15741 26.155 5.22456 25.4535 4.523C24.005 3.0747 21.6486 3.0747 20.2002 4.523L17.5286 7.19454C16.5949 8.12815 16.2294 9.48273 16.5597 10.756L14.6814 12.6343C13.3783 10.5954 13.6545 7.86107 15.3905 6.12507L19.1307 2.38482C19.8173 1.69817 20.6771 1.21751 21.6169 0.994969C21.8534 0.93898 21.9998 0.701822 21.9437 0.46525C21.8877 0.228737 21.6506 0.0822517 21.414 0.138416C20.3151 0.398639 19.3103 0.960167 18.5081 1.76237L14.7679 5.50257C13.7222 6.54833 13.0918 7.93601 12.9929 9.40996C12.9008 10.7834 13.2736 12.1441 14.0455 13.2703L13.2938 14.022C12.1675 13.2501 10.8066 12.877 9.43349 12.9694C7.95954 13.0683 6.57186 13.6987 5.52609 14.7444L1.7859 18.4846C-0.59531 20.8659 -0.59531 24.7405 1.78596 27.1219C2.12881 27.4539 2.98161 28.3527 3.34689 28.6327C3.53486 28.7845 3.81258 28.7561 3.96575 28.5659C4.11828 28.3766 4.08841 28.0995 3.89908 27.9471C3.58627 27.7094 2.70443 26.7849 2.40846 26.4993C0.370402 24.4612 0.370402 21.1451 2.40846 19.1071L6.14865 15.3669C7.88465 13.6309 10.619 13.3547 12.658 14.6578L10.7797 16.5362C9.50655 16.2058 8.15191 16.5713 7.21813 17.505L6.24778 18.4755C6.07588 18.6475 6.07588 18.9261 6.24778 19.098C6.41974 19.2699 6.69833 19.2699 6.87028 19.098L7.84057 18.1277C8.4433 17.525 9.27597 17.2334 10.1063 17.31C9.70404 18.0285 9.80751 18.9562 10.418 19.5668C10.9793 20.1772 11.9483 20.3353 12.6727 19.9391C12.7279 20.7464 12.4361 21.5487 11.8489 22.1358L9.17731 24.8074C8.07216 25.9126 6.27401 25.9124 5.16897 24.8074C4.63368 24.2721 4.33883 23.5604 4.33883 22.8033C4.3251 21.9182 4.76491 21.1263 5.41781 20.5504C5.58971 20.3785 5.58971 20.0998 5.41781 19.9279C5.24586 19.7561 4.96721 19.7561 4.79531 19.9279C3.97004 20.6653 3.44666 21.685 3.45857 22.8033C3.45857 23.7955 3.84497 24.7284 4.54659 25.43C5.27074 26.1541 6.22196 26.5162 7.17317 26.5162C8.12439 26.5162 9.07561 26.1541 9.79982 25.43L12.4714 22.7584C13.3889 21.8408 13.7565 20.5228 13.4584 19.2707L15.355 17.3741C16.6187 19.4077 16.3323 22.1051 14.6094 23.8279L10.8692 27.5681C9.47744 28.9599 7.44742 29.4506 5.57169 28.849C5.3404 28.7749 5.09233 28.9021 5.01809 29.1337C4.94379 29.3651 5.07126 29.613 5.30278 29.6873C5.92153 29.8858 6.55454 29.9824 7.18115 29.9824C8.77383 29.9824 10.3247 29.3576 11.4917 28.1906L15.2319 24.4505C16.2811 23.4013 16.9118 22.0089 17.0078 20.5299C17.0954 19.1825 16.7349 17.8499 15.9909 16.7382L16.7616 15.9675C17.7637 16.6383 18.9452 16.9975 20.1553 16.9974C20.2877 16.9974 20.4205 16.9931 20.5532 16.9845C22.0323 16.8884 23.4247 16.2577 24.4738 15.2086L28.214 11.4684C30.5954 9.087 30.5954 5.21241 28.2141 2.83108ZM11.7902 19.2771C11.5025 19.2785 11.2347 19.1546 11.0403 18.9441C10.6479 18.5516 10.6479 17.9131 11.0403 17.5207L17.6336 10.9273C18.0261 10.5348 18.6646 10.5348 19.057 10.9273C19.4798 11.2964 19.5021 11.9995 19.0952 12.3889L12.5019 18.9823C12.3118 19.1724 12.0591 19.2771 11.7902 19.2771Z" fill="#413033"/>
</g>
<defs>
<clipPath id="clip0">
<rect width="30" height="30" fill="white"/>
</clipPath>
</defs>
</svg>
