<svg width="170" height="183" viewBox="0 0 170 183" xmlns="http://www.w3.org/2000/svg">
<path d="M54.3429 178.628C55.0566 178.322 55.3625 177.71 55.3625 176.997C55.3625 175.467 54.3429 174.855 52.8136 174.855H49.7549V182.808H53.2214C54.7507 182.808 55.7703 181.992 55.7703 180.565C55.7703 179.545 55.2605 178.832 54.3429 178.628ZM50.6725 175.569H52.8136C53.7312 175.569 54.4449 175.875 54.4449 176.895C54.4449 177.914 53.7312 178.22 52.8136 178.22H50.6725V175.569ZM53.1194 181.89H50.6725V179.036H52.9155C53.9351 179.036 54.7507 179.444 54.7507 180.463C54.7507 181.483 54.037 181.89 53.1194 181.89Z" fill="#413033"/>
<path d="M64.0288 179.036H67.5973V178.22H64.0288V175.57H67.6992V174.754H63.0092V182.707H67.8012V181.891H64.0288V179.036Z" fill="#413033"/>
<path d="M77.9969 174.754L74.3264 182.605V182.707H75.346L76.2636 180.769H80.2399L81.1575 182.707H82.1771V182.605L78.5066 174.754H77.9969ZM76.4675 179.954L78.0988 176.283L79.7301 179.954H76.4675Z" fill="#413033"/>
<path d="M93.9021 180.055C93.9021 181.279 92.9845 181.992 91.761 181.992C90.5375 181.992 89.6199 181.279 89.6199 180.055V174.855H88.7023V180.157C88.7023 181.992 90.0277 182.91 91.761 182.91C93.4943 182.91 94.8197 181.89 94.8197 180.157V174.855H93.9021V180.055Z" fill="#413033"/>
<path d="M101.651 175.672H104.098V182.707H105.015V175.672H107.462V174.754H101.651V175.672Z" fill="#413033"/>
<path d="M118.168 176.691L117.046 178.628H116.944L115.823 176.691L114.701 174.754H113.58V174.958L116.536 179.444V182.707H117.454V179.444L120.309 174.958V174.754H119.289L118.168 176.691Z" fill="#413033"/>
<path d="M8.56436 157.523C8.97219 157.421 9.38001 157.217 9.68588 157.013C9.99175 156.81 10.1957 156.504 10.3996 156.3C10.6035 156.096 10.7055 155.688 10.8074 155.382C10.9094 155.076 10.9094 154.668 10.9094 154.261C10.9094 153.751 10.8074 153.343 10.6035 152.935C10.3996 152.527 10.0937 152.12 9.68588 151.916C9.27806 151.61 8.76827 151.406 8.05458 151.202C7.34088 150.998 6.52523 150.998 5.50566 150.998H0V151.61L1.52935 151.814V162.009L0.101957 162.213V162.825H5.91349V162.213L4.38414 162.009V157.829H5.91349L9.27806 162.927H13.1524V162.213L11.827 162.009L8.56436 157.523ZM8.05458 155.382C7.95262 155.688 7.85066 155.994 7.64675 156.198C7.44284 156.402 7.13697 156.504 6.8311 156.606C6.52523 156.708 6.1174 156.708 5.60762 156.708H4.38414V151.712H5.60762C6.1174 151.712 6.42327 151.712 6.8311 151.814C7.23892 151.916 7.44284 152.018 7.64675 152.222C7.85066 152.425 8.05458 152.629 8.05458 152.935C8.15653 153.241 8.15653 153.649 8.15653 154.159C8.25849 154.668 8.15653 155.076 8.05458 155.382Z" fill="#413033"/>
<path d="M33.8496 152.119C33.3398 151.609 32.6261 151.202 31.9124 150.998C31.1987 150.794 30.2811 150.59 29.2616 150.59C28.242 150.59 27.3244 150.692 26.6107 150.998C25.897 151.304 25.1833 151.609 24.6735 152.119C24.1637 152.629 23.7559 153.241 23.45 154.056C23.1442 154.872 23.0422 155.79 23.0422 156.809C23.0422 157.829 23.1442 158.746 23.45 159.562C23.7559 160.378 24.1637 160.989 24.6735 161.499C25.1833 162.009 25.897 162.417 26.6107 162.621C27.4263 162.825 28.242 163.029 29.2616 163.029C30.2811 163.029 31.0968 162.927 31.9124 162.621C32.7281 162.417 33.3398 162.009 33.8496 161.499C34.3594 160.989 34.7672 160.378 35.0731 159.562C35.379 158.746 35.4809 157.829 35.4809 156.809C35.4809 155.79 35.379 154.872 35.0731 154.056C34.7672 153.241 34.3594 152.629 33.8496 152.119ZM32.3203 159.052C32.2183 159.664 32.0144 160.276 31.8105 160.684C31.6066 161.091 31.1987 161.499 30.7909 161.703C30.3831 161.907 29.8733 162.111 29.2616 162.111C28.6498 162.111 28.14 162.009 27.6303 161.703C27.1205 161.397 26.9166 161.091 26.6107 160.684C26.3048 160.276 26.2029 159.664 26.1009 159.052C25.9989 158.44 25.9989 157.625 25.9989 156.809C25.9989 155.994 25.9989 155.28 26.1009 154.566C26.2029 153.852 26.4068 153.343 26.6107 152.935C26.8146 152.527 27.2224 152.119 27.6303 151.915C28.0381 151.711 28.5479 151.609 29.2616 151.609C29.9753 151.609 30.3831 151.711 30.7909 151.915C31.1987 152.119 31.5046 152.527 31.8105 152.935C32.1163 153.343 32.2183 153.954 32.3203 154.566C32.4222 155.178 32.4222 155.994 32.4222 156.809C32.5242 157.625 32.4222 158.44 32.3203 159.052Z" fill="#413033"/>
<path d="M56.2801 161.193C55.9742 161.397 55.5664 161.601 55.0566 161.805C54.5468 162.009 53.9351 162.111 53.3233 162.111C52.7116 162.111 52.2018 162.009 51.692 161.805C51.1823 161.601 50.7744 161.295 50.4686 160.888C50.1627 160.48 49.8568 159.97 49.6529 159.256C49.449 158.543 49.347 157.829 49.347 157.013C49.347 155.994 49.449 155.178 49.6529 154.464C49.8568 153.751 50.0607 153.241 50.4686 152.833C50.8764 152.425 51.1823 152.119 51.692 151.915C52.2018 151.711 52.7116 151.61 53.4253 151.61C53.9351 151.61 54.4449 151.711 54.9547 151.813C55.4644 151.915 55.8723 152.119 56.1781 152.425L56.382 154.158H57.1977L57.0957 151.304C56.484 151.1 55.8723 150.998 55.1586 150.896C54.4449 150.794 53.6292 150.692 52.8136 150.692C51.794 150.692 50.8764 150.794 50.1627 151.1C49.449 151.406 48.7353 151.711 48.1236 152.221C47.6138 152.731 47.2059 153.343 46.9001 154.158C46.5942 154.974 46.4922 155.892 46.4922 156.911C46.4922 157.829 46.5942 158.746 46.9001 159.46C47.2059 160.174 47.6138 160.888 48.1236 161.397C48.6333 161.907 49.347 162.315 50.1627 162.621C50.9783 162.927 51.896 163.029 52.8136 163.029C53.2214 163.029 53.6292 163.029 54.037 162.927C54.4449 162.825 54.8527 162.825 55.2605 162.723C55.6684 162.621 56.0762 162.621 56.382 162.519C56.6879 162.417 56.9938 162.315 57.2997 162.213L57.4016 159.154H56.586L56.2801 161.193Z" fill="#413033"/>
<path d="M75.7538 155.178L79.7301 151.712L81.1575 151.508V150.794H77.0792V151.508L78.0988 151.712L72.6951 156.605V151.712L74.2245 151.508V150.794H68.311V151.508L69.8403 151.712V161.907L68.311 162.213V162.825H74.4284V162.213L72.6951 161.907V157.931L73.7147 157.013L78.2008 162.825H82.1771V162.213L81.0556 161.907L75.7538 155.178Z" fill="#413033"/>
<path d="M91.761 162.213V162.825H102.568L102.874 159.154H102.059L101.345 161.703C101.141 161.703 100.835 161.805 100.325 161.805C99.8156 161.805 99.2038 161.907 98.4901 161.907H96.0432V151.712L97.8784 151.508V150.896H91.761V151.508L93.2903 151.712V161.907L91.761 162.213Z" fill="#413033"/>
<path d="M120.819 150.692H118.27L113.988 161.907L113.07 162.111V162.723H116.74V162.213L115.211 162.009L116.333 158.95H120.921L122.042 162.009L120.615 162.213V162.825H125.916V162.213L124.999 162.009L120.819 150.692ZM116.638 157.829L118.576 152.527L120.513 157.829H116.638Z" fill="#413033"/>
<path d="M144.065 151.508L145.594 151.712V158.543L139.783 150.794H135.602V151.508L137.234 151.712V161.907L135.602 162.213V162.825H139.885V162.213L138.355 161.907V153.139L145.696 162.825H146.716V151.712L148.347 151.508V150.794H144.065V151.508Z" fill="#413033"/>
<path d="M169.656 153.955C169.35 153.241 168.942 152.629 168.432 152.119C167.923 151.61 167.209 151.304 166.393 151.1C165.578 150.896 164.762 150.794 163.742 150.794H158.033V151.406L159.562 151.61V161.805L158.033 162.213V162.825H160.072C160.276 162.825 160.582 162.825 160.888 162.825C161.193 162.825 161.499 162.825 161.907 162.825C162.315 162.825 162.621 162.825 163.029 162.825C163.437 162.825 163.742 162.825 164.15 162.825C165.17 162.825 166.087 162.723 166.801 162.417C167.515 162.111 168.127 161.703 168.636 161.194C169.146 160.684 169.452 160.072 169.656 159.256C169.86 158.441 169.962 157.625 169.962 156.605C170.064 155.688 169.962 154.77 169.656 153.955ZM166.903 159.154C166.801 159.766 166.597 160.276 166.393 160.684C166.189 161.092 165.782 161.397 165.476 161.601C165.17 161.805 164.558 161.907 163.946 161.907C163.742 161.907 163.64 161.907 163.538 161.907C163.437 161.907 163.335 161.907 163.131 161.907C163.029 161.907 162.927 161.907 162.825 161.907C162.723 161.907 162.621 161.907 162.417 161.907V151.915H163.131C163.742 151.915 164.354 152.017 164.864 152.221C165.374 152.425 165.782 152.629 166.087 153.037C166.393 153.445 166.699 153.955 166.903 154.566C167.107 155.178 167.209 155.994 167.209 156.911C167.107 157.727 167.005 158.441 166.903 159.154Z" fill="#413033"/>
<path d="M105.729 3.46653L105.627 3.36457C105.219 3.16066 104.811 3.0587 104.404 2.95674C102.67 2.44696 100.937 1.93718 99.2038 1.63131C99.1019 1.63131 99.1019 1.52935 98.9999 1.52935C97.5725 1.22348 96.0432 0.91761 94.6158 0.713697C94.6158 0.713697 94.6158 0.713697 94.5138 0.713697H94.4118C91.3531 0.30587 88.2945 0 85.1338 0C49.2451 0.101957 20.0854 29.2616 20.0854 65.0484C20.0854 68.107 20.2894 71.1657 20.6972 74.1225V74.2244C21.5128 79.7301 22.9402 85.2358 25.1833 90.3336C25.1833 90.3336 25.1833 90.3336 25.1833 90.4356C25.1833 90.4356 25.1833 90.5375 25.2852 90.5375C25.2852 90.5375 25.2852 90.5375 25.3872 90.5375C25.3872 90.5375 25.3872 90.5375 25.4892 90.6395C25.4892 90.6395 25.4892 90.6395 25.5911 90.6395H25.6931C25.795 90.6395 25.795 90.6395 25.897 90.6395L25.9989 90.5375C25.9989 90.5375 25.9989 90.5375 25.9989 90.4356C25.9989 90.4356 25.9989 90.3336 26.1009 90.3336C28.14 85.8475 32.0144 78.6086 33.6457 78.0988C33.7476 78.0988 33.7476 78.0988 33.7476 78.0988C34.0535 78.3027 34.2574 78.5066 34.5633 78.7105C35.175 79.2203 35.6848 79.6282 36.5005 79.5262C37.4181 79.3223 38.3357 78.3027 40.1709 75.5499C41.5983 73.3068 42.8218 70.9618 44.0453 68.6168C45.6766 71.8794 47.8177 76.5695 50.3666 81.8712C54.037 89.5179 58.1153 98.1843 61.8877 106.035C61.8877 106.137 61.9896 106.137 62.0916 106.239C62.0916 106.239 62.0916 106.239 62.1936 106.239C62.1936 106.239 62.1936 106.239 62.2955 106.239C62.3975 106.239 62.3975 106.239 62.4994 106.239C62.6014 106.239 62.6014 106.239 62.7033 106.137C62.8053 106.035 62.8053 106.035 62.9072 105.933C63.3151 104.913 63.6209 103.792 64.0288 102.67C64.8444 100.325 65.5581 97.8784 66.4757 95.9412L66.7816 95.3295C67.8012 93.0864 68.7188 90.7414 70.2481 88.8043C70.8599 87.9886 71.9814 86.8671 73.5107 86.4593C74.8362 86.0514 76.3655 86.2553 77.9968 86.5612C79.2203 86.7651 80.4438 87.1729 81.6673 87.4788C84.2162 88.1925 86.7651 88.8043 89.416 88.8043C93.5962 88.7023 96.6549 85.8475 98.0823 84.2162C98.3882 83.8084 98.694 83.5025 98.9999 83.0947C100.733 83.2986 102.568 82.8908 104.098 81.8712C105.423 80.9536 106.239 79.7301 106.341 78.5066C106.443 77.7929 106.239 76.8753 105.729 76.3655C105.423 75.9577 104.913 75.7538 104.506 75.8558C103.894 75.8558 103.486 76.2636 103.078 76.5695C101.651 77.7929 100.529 79.3223 99.5097 80.7497C99.2038 81.1575 98.8979 81.5653 98.5921 81.9732C98.3882 81.8712 98.1842 81.8712 97.9803 81.7692C96.6549 81.1575 95.5334 80.036 94.8197 78.4047C94.7177 78.0988 94.6158 77.7929 94.5138 77.4871C97.0627 75.9577 99.6117 74.2244 101.753 72.0834C103.894 69.9423 106.545 66.4757 107.156 61.9897C107.258 61.276 107.36 60.2564 107.054 59.3388C106.749 58.3192 106.137 57.5036 105.219 57.0957C104.2 56.6879 102.976 56.7899 101.549 57.5036C98.694 58.829 96.349 61.276 94.8197 64.3347C93.4943 66.9855 92.7805 70.2481 92.8825 73.7147C92.8825 74.9381 92.9845 76.0597 93.1884 77.0792C91.659 77.9968 90.1297 78.8125 88.6003 79.6282L87.1729 80.3419C85.8475 81.0555 84.5221 81.7692 83.2986 82.6869L83.0947 82.7888C82.381 83.4006 81.6673 83.9103 80.8516 83.8084C79.4242 83.6045 78.7105 81.6673 78.4047 80.5458C77.8949 78.7105 77.2831 77.589 75.6518 77.2831C75.5499 77.0792 75.9577 76.0597 76.4675 75.346C76.5694 75.1421 76.5694 74.9381 76.4675 74.8362C76.4675 74.6323 76.2636 74.5303 76.0597 74.5303C76.0597 74.5303 74.9381 74.6323 73.7147 74.8362C73.6127 74.8362 73.5107 74.8362 73.2049 73.9186C73.001 73.5108 72.797 72.899 72.4912 72.3892C71.7775 71.1658 70.9618 71.1657 70.2481 71.1657C69.8403 71.1657 69.5344 71.1657 69.0246 71.0638C68.6168 70.9618 68.4129 70.7579 68.209 70.3501C67.9031 69.7384 68.0051 68.8207 68.311 67.9031C69.3305 65.1503 69.2286 62.0916 67.8012 58.727C66.3738 55.2605 64.7425 51.5901 61.9896 49.347C59.8485 47.6138 57.1977 47.3079 55.2605 48.5314C53.6292 49.5509 52.4057 51.3862 51.2842 53.0175L50.9783 53.5272C49.347 55.9742 48.0216 58.4212 46.3903 61.3779C45.5746 63.0092 44.657 64.6405 43.8414 66.1699C43.8414 66.2718 43.7394 66.2718 43.7394 66.3738C43.0257 64.9464 42.5159 64.0288 42.21 63.417C40.069 59.6446 38.2337 57.6055 36.2966 57.1977C35.0731 56.8918 33.9516 57.1977 32.6261 58.1153C30.1792 59.8486 23.552 69.3305 21.207 72.5931C20.9011 70.0442 20.6972 67.4953 20.6972 64.9464C21.105 29.7713 49.7548 1.12152 85.0318 1.12152C85.5416 1.12152 85.9495 1.12152 86.3573 1.12152C79.0164 2.24305 71.7775 5.30175 66.2718 9.78784C61.5818 13.6622 58.6251 18.9639 58.2172 24.4696C57.8094 29.4655 59.4407 34.1555 62.9072 38.0298C63.7229 38.9474 64.6405 39.7631 65.6601 40.4768C68.7188 42.6179 72.6951 43.8414 77.4871 44.0453C80.6477 44.1472 83.7064 43.8414 86.7651 43.6375C87.7847 43.5355 88.7023 43.4335 89.7219 43.3316C98.796 42.6179 109.196 42.8218 117.454 49.8568C121.736 53.5272 124.999 58.5231 127.14 64.4366C126.528 67.9031 125.305 71.1657 123.877 74.0205C121.532 78.8125 118.27 83.2986 115.211 87.6827C112.764 91.1493 110.215 94.7177 108.074 98.3882C105.015 103.69 100.733 113.376 103.078 122.858C95.6353 126.222 85.8475 127.956 73.7147 128.058H73.6127C73.6127 128.058 73.6127 128.058 73.5107 128.058C73.5107 128.058 73.4088 128.058 73.4088 128.16C73.4088 128.16 73.4088 128.16 73.3068 128.261C73.3068 128.261 73.3068 128.261 73.2049 128.363V128.465C73.2049 128.465 73.2049 128.465 73.2049 128.567V128.669V128.771C73.2049 128.771 73.2049 128.873 73.3068 128.873C73.3068 128.873 73.3068 128.873 73.4088 128.975C73.4088 128.975 73.4088 128.975 73.5107 129.077H73.6127C77.2831 129.689 81.1575 130.097 84.9299 130.097C120.717 130.097 149.876 100.937 149.876 65.1503C149.978 36.5005 131.422 12.1328 105.729 3.46653ZM100.121 81.4634C101.141 80.036 102.263 78.6086 103.588 77.3851C103.894 77.1812 104.098 76.8753 104.404 76.8753C104.608 76.8753 104.709 76.9773 104.811 77.0792C105.117 77.3851 105.219 77.8949 105.117 78.3027C104.913 79.6282 103.894 80.5458 103.282 80.9536C102.161 81.7692 100.835 82.1771 99.5097 82.0751C99.7136 81.9732 99.9175 81.6673 100.121 81.4634ZM95.7373 64.8444C97.1647 61.9897 99.3058 59.7466 101.957 58.5231C102.67 58.2173 103.384 58.0133 103.894 58.0133C104.2 58.0133 104.506 58.1153 104.709 58.2173C105.321 58.4212 105.729 59.0329 105.933 59.7466C106.137 60.3583 106.137 61.072 106.035 61.9897C105.423 66.1699 102.874 69.4325 100.937 71.4716C98.898 73.5108 96.5529 75.1421 94.2079 76.5695C94.004 75.7538 94.004 74.8362 93.9021 73.8166C93.8001 70.4521 94.4119 67.3934 95.7373 64.8444ZM44.9629 66.7816C45.7785 65.1503 46.5942 63.519 47.4098 61.9897C49.0411 59.0329 50.3666 56.5859 51.9979 54.2409L52.3038 53.7312C53.3233 52.2018 54.4448 50.4685 55.9742 49.5509C57.9114 48.3275 60.1544 49.1431 61.4799 50.2646C64.0288 52.4057 65.5581 55.8722 66.9855 59.2368C68.3109 62.3975 68.4129 65.2523 67.4953 67.6992C66.9855 68.9227 66.9855 70.0442 67.3933 70.9618C67.6992 71.5736 68.107 71.9814 68.7188 72.1853C69.3305 72.3892 69.8403 72.3892 70.2481 72.3892C70.8599 72.3892 71.1657 72.3892 71.5736 73.001C71.8794 73.5108 72.0834 74.0205 72.1853 74.4284C72.4912 75.244 72.797 76.1616 73.8166 75.9577C74.2244 75.8558 74.6323 75.8558 75.0401 75.7538C74.7342 76.3655 74.4283 77.2831 74.6323 77.7929C74.7342 78.0988 75.0401 78.3027 75.4479 78.4047C76.2636 78.5066 76.8753 78.9145 77.3851 80.9536C77.8949 82.5849 78.8125 84.624 80.6477 84.9299C81.8712 85.1338 82.8908 84.4201 83.7064 83.7064L83.9103 83.6045C85.0318 82.6869 86.2553 82.0751 87.5808 81.3614L89.0082 80.6477C90.4356 79.8321 91.9649 79.1184 93.3923 78.3027C93.4942 78.6086 93.5962 78.8125 93.6982 79.1184C94.5138 80.9536 95.8393 82.279 97.3686 82.9927C97.4706 82.9927 97.5725 83.0947 97.6745 83.0947C97.4706 83.2986 97.2666 83.6045 97.0627 83.8084C95.7373 85.3377 92.8825 87.8866 89.1101 87.9886C86.6631 88.0906 84.1142 87.3769 81.6673 86.7651C80.4438 86.4593 79.1184 86.0514 77.8949 85.8475C76.1616 85.5416 74.5303 85.2358 73.001 85.7456C71.5736 86.1534 70.3501 87.071 69.2286 88.4984C67.6992 90.5375 66.6796 92.8825 65.6601 95.2275L65.3542 95.8393C64.4366 97.8784 63.7229 100.325 62.9072 102.67C62.7033 103.384 62.3975 104.098 62.1936 104.811C58.5231 97.2667 54.6488 89.1101 51.1822 81.7692C48.4294 76.0597 46.0844 71.1658 44.4531 67.8012C44.657 67.2914 44.8609 66.9855 44.9629 66.7816ZM33.5437 59.0329C34.5633 58.3192 35.4809 58.1153 36.3985 58.3192C38.0298 58.727 39.7631 60.5623 41.7003 64.0288C42.0061 64.6405 42.6179 65.864 43.5355 67.5973C42.21 70.1462 40.8846 72.6951 39.3553 75.1421C38.3357 76.6714 37.1122 78.5066 36.3985 78.6086C36.0926 78.6086 35.7868 78.4047 35.277 77.9968C35.0731 77.7929 34.7672 77.589 34.4613 77.3851C34.2574 77.2832 33.9516 77.1812 33.5437 77.2831C31.3007 77.8949 27.4263 85.6436 25.897 88.9062C23.9598 84.1142 22.6344 79.2203 21.9207 74.2244C22.8383 72.6951 30.8929 60.8681 33.5437 59.0329ZM98.796 2.65087C98.8979 2.65087 98.9999 2.75283 99.2038 2.75283C95.3295 3.16066 91.761 5.19979 89.7219 8.36045C89.314 8.87023 89.0081 9.48197 88.8042 10.0937C87.3768 13.7642 88.0905 18.2502 90.8434 21.5129C93.4942 24.7755 97.9803 26.7126 102.466 28.344C102.976 28.5479 103.384 28.6498 103.894 28.8537C107.054 29.8733 110.419 30.587 113.58 31.1987C115.007 31.5046 116.536 31.8105 117.964 32.1163C123.164 33.3398 126.732 34.8692 129.485 37.3161C133.461 40.6807 135.908 46.0844 136.214 52.0999C136.622 59.6446 133.869 66.7816 130.301 72.899C129.893 70.3501 129.383 67.8012 128.567 65.3542C128.465 65.0483 128.363 64.7425 128.261 64.3347C129.383 58.2173 128.873 51.5901 125.101 46.2883C120.717 40.069 113.172 37.3161 107.666 36.0927C104.098 35.277 100.427 34.8692 96.9608 34.4614C93.9021 34.1555 90.6395 33.7477 87.5808 33.1359C84.8279 32.6261 81.2594 31.7085 78.7105 29.4655C74.2244 25.5911 73.5107 17.8424 77.0792 12.2348C80.8516 6.01544 89.0081 2.44696 98.796 2.65087ZM118.168 49.0412C109.705 41.8022 98.9999 41.5983 89.7219 42.312C88.7023 42.414 87.7847 42.5159 86.7651 42.6179C83.8084 42.9238 80.6477 43.2296 77.589 43.0257C73.001 42.8218 69.2286 41.7003 66.3738 39.6611C65.4562 39.0494 64.6405 38.2337 63.8249 37.3161C60.5622 33.6457 59.0329 29.2616 59.3388 24.5716C59.7466 19.3718 62.4994 14.2739 66.9855 10.6035C74.2244 4.58805 84.726 1.22348 94.2079 1.83522C86.2553 2.65087 79.6281 6.21936 76.0597 11.827C72.1853 17.8424 73.1029 26.2029 77.8949 30.3831C80.6477 32.7281 84.3181 33.7477 87.2749 34.2574C90.4355 34.8692 93.5962 35.277 96.7569 35.5829C100.223 35.9907 103.894 36.3985 107.36 37.2142C112.764 38.4377 120.003 41.0885 124.183 47.002C127.344 51.5901 128.058 57.0957 127.446 62.4994C125.305 57.0957 122.144 52.5077 118.168 49.0412ZM108.992 98.898C111.133 95.2275 113.58 91.659 116.027 88.2945C119.085 83.9103 122.348 79.4242 124.795 74.5303C126.018 72.0834 127.038 69.3305 127.752 66.3738C128.567 68.9227 129.077 71.5736 129.383 74.3264C127.446 77.589 125.203 80.4438 123.266 82.8908C122.042 84.4201 120.717 86.0514 119.493 87.5808C113.58 94.8197 107.36 102.364 104.913 111.643C103.996 114.905 103.588 117.25 103.69 119.901C102.976 113.58 104.811 106.239 108.992 98.898ZM85.0318 129.077C83.5025 129.077 81.9731 128.975 80.4438 128.873C89.6199 128.261 97.3686 126.63 103.486 123.877C103.69 124.591 103.996 125.305 104.302 126.12C98.1843 128.058 91.761 129.077 85.0318 129.077ZM105.933 111.948C108.38 102.874 114.497 95.4314 120.309 88.2945C121.634 86.7651 122.858 85.1338 124.081 83.6045C125.815 81.3614 127.752 78.8125 129.587 75.9577C130.505 85.3377 128.669 95.0236 124.387 103.078C120.105 111.133 113.172 117.862 105.117 122.042C105.015 122.042 105.015 122.144 104.913 122.144C104.506 118.576 104.811 115.925 105.933 111.948ZM105.321 125.713C105.117 124.795 105.015 123.979 104.913 123.164C105.117 123.062 105.321 122.96 105.525 122.858C113.886 118.576 120.819 111.643 125.305 103.384C129.893 94.8197 131.728 84.4201 130.505 74.4284C134.481 67.9031 137.641 60.1544 137.234 51.8959C136.826 45.5746 134.277 39.967 130.199 36.3985C127.344 33.8496 123.571 32.2183 118.27 30.9948C116.842 30.689 115.313 30.3831 113.886 30.0772C110.725 29.4655 107.462 28.7518 104.302 27.7322C103.792 27.5283 103.384 27.4263 102.874 27.2224C98.4901 25.6931 94.2079 23.7559 91.659 20.7992C89.2121 17.8424 88.4984 13.6622 89.8238 10.3996C90.0277 9.8898 90.3336 9.27806 90.6395 8.87023C93.4942 4.58805 99.1019 2.65087 104.2 3.97631C130.199 12.1328 149.163 36.3985 149.163 65.0484C148.959 93.2904 130.708 117.25 105.321 125.713Z" fill="#413033"/>
<path d="M76.6714 57.7076C73.7147 58.3194 73.4088 59.7468 73.4088 59.8487C73.4088 60.1546 73.5108 60.3585 73.8166 60.4605H73.9186C74.1225 60.4605 74.3264 60.2565 74.4284 60.0526C74.4284 60.0526 74.7343 59.135 76.9773 58.7272C82.1771 57.7076 81.7693 53.8333 81.7693 53.8333C81.7693 53.5274 81.4634 53.3235 81.1575 53.4254C80.8516 53.4254 80.6477 53.7313 80.7497 54.0372C80.6477 54.0372 80.9536 56.892 76.6714 57.7076Z" fill="#413033"/>
</svg>
