<svg width="62" height="62" viewBox="0 0 62 62" fill="none" xmlns="http://www.w3.org/2000/svg">
<path d="M61 46.5808C61 54.5288 54.5288 61 46.5808 61H15.4192C7.47124 61 1 54.5288 1 46.5808V15.4192C1 7.47124 7.47124 1 15.4192 1H46.5973C54.5454 1 61.0166 7.47124 61.0166 15.4192V46.5808H61Z" stroke="#413033" stroke-miterlimit="10"/>
<path d="M48.9915 45V44.9987H49V33.2098C49 27.4426 47.6852 23 40.5452 23C37.1128 23 34.8094 24.7786 33.8691 26.4649H33.7698V23.5384H27V44.9987H34.0492V34.3723C34.0492 31.5745 34.6109 28.869 38.2801 28.869C41.8955 28.869 41.9494 32.062 41.9494 34.5518V45H48.9915Z" stroke="#413033"/>
<path d="M15 23H23V45H15V23Z" stroke="#413033"/>
<path d="M19 13C16.7918 13 15 14.7835 15 16.9814C15 19.1792 16.7918 21 19 21C21.2082 21 23 19.1792 23 16.9814C22.9986 14.7835 21.2068 13 19 13V13Z" stroke="#413033"/>
</svg>
