<svg width="62" height="62" viewBox="0 0 62 62" fill="none" xmlns="http://www.w3.org/2000/svg">
<path d="M61 46.5808C61 54.5288 54.5288 61 46.5808 61H15.4192C7.47124 61 1 54.5288 1 46.5808V15.4192C1 7.47124 7.47124 1 15.4192 1H46.5973C54.5454 1 61.0166 7.47124 61.0166 15.4192V46.5808H61Z" stroke="#413033" stroke-miterlimit="10"/>
<path d="M23.7473 41.109C20.4941 41.039 17.7121 39.0514 16.4635 36.2482C16.7524 36.2714 17.0405 36.2792 17.321 36.2792C18.1513 36.2792 18.9601 36.1835 19.7099 35.9792L19.6784 35.0068C16.2187 34.3017 13.5317 31.3863 13.2119 27.789C14.2434 28.2346 15.3908 28.5076 16.5608 28.5298L18.2712 28.5621L16.8474 27.6137C14.691 26.1772 13.2456 23.6963 13.2456 20.9003C13.2456 19.668 13.5263 18.5071 14.0214 17.4553C18.3515 22.4434 24.6089 25.6948 31.6476 26.0368L32.3057 26.0688L32.1594 25.4264C32.0279 24.8487 31.9724 24.2335 31.9724 23.5811C31.9724 19.1315 35.586 15.5 40.0771 15.5C42.3917 15.5 44.5137 16.478 46.0028 18.0577L46.1927 18.2592L46.4642 18.2052C47.9965 17.9002 49.4587 17.411 50.8263 16.7451C50.1332 18.0743 49.0768 19.1806 47.7831 19.9501L48.1016 20.8759C49.2945 20.7248 50.4561 20.4664 51.5761 20.101C50.6507 21.2271 49.5914 22.2255 48.3958 23.0708L48.1712 23.2296L48.1851 23.5043C48.2033 23.8631 48.216 24.2202 48.216 24.588C48.216 35.7062 39.7216 48.5 24.209 48.5C20.1707 48.5 16.3828 47.5204 13.0516 45.7678C13.0546 45.7678 13.0576 45.7678 13.0606 45.7678C17.2025 45.7678 21.0296 44.3526 24.0439 42.0033L25.1524 41.1393L23.7473 41.109Z" stroke="#413033"/>
</svg>
