<svg width="62" height="62" viewBox="0 0 62 62" fill="none" xmlns="http://www.w3.org/2000/svg">
<path d="M61 46.5808C61 54.5288 54.5288 61 46.5808 61H15.4192C7.47124 61 1 54.5288 1 46.5808V15.4192C1 7.47124 7.47124 1 15.4192 1H46.5973C54.5454 1 61.0166 7.47124 61.0166 15.4192V46.5808H61Z" stroke="#413033" stroke-miterlimit="10"/>
<path d="M42.5287 22.4543L42.5292 22.4531C42.5294 22.4527 42.5295 22.4522 42.5297 22.4518C42.6509 22.1746 42.8101 21.9451 43.0333 21.7828C43.2522 21.6236 43.5721 21.5 44.0677 21.5H48.6599C49.2963 21.5 49.5087 21.6608 49.5767 21.7548C49.635 21.8354 49.679 21.9928 49.6213 22.2789L49.6088 22.285L49.5563 22.5191C49.43 23.0819 49.0072 23.9802 48.3991 25.0557C47.8005 26.1143 47.0528 27.2931 46.3186 28.3982C45.5851 29.5022 44.8688 30.5272 44.335 31.2771C44.0683 31.6519 43.8474 31.9576 43.6931 32.1696C43.6159 32.2756 43.5554 32.3582 43.5143 32.4141L43.4746 32.4679L43.4627 32.4796L43.4324 32.5265L43.4295 32.531C43.2041 32.8802 42.9541 33.2673 42.9178 33.7052C42.8777 34.187 43.093 34.6167 43.4591 35.071C43.4995 35.1233 43.5583 35.1848 43.6068 35.2349C43.6685 35.2985 43.7489 35.3789 43.8436 35.4728C43.9436 35.5719 44.064 35.6902 44.1998 35.8236C44.3193 35.9412 44.4508 36.0704 44.5908 36.2085C45.1935 36.8033 45.9783 37.587 46.7809 38.4395C47.5846 39.2932 48.4002 40.2098 49.0665 41.0703C49.7402 41.9404 50.2257 42.709 50.4167 43.2771C50.5764 43.8023 50.4794 44.0616 50.3597 44.1946C50.2172 44.3531 49.8987 44.5 49.3021 44.5H44.71C44.3445 44.5 44.0631 44.4314 43.7965 44.297C43.5198 44.1574 43.2367 43.9358 42.8824 43.5942C42.5956 43.3175 42.282 42.9823 41.8987 42.5725C41.8055 42.4729 41.7082 42.3689 41.6061 42.2603C41.0893 41.7099 40.4656 41.0569 39.6767 40.2989L39.6768 40.2988L39.6701 40.2926C36.9289 37.7537 35.6359 37.3017 34.7521 37.3017C34.3939 37.3017 33.9887 37.3217 33.6664 37.5398C33.3104 37.7807 33.174 38.1711 33.1086 38.5868C33.043 39.0045 33.0313 39.5727 33.0332 40.3154C33.034 40.6227 33.0371 40.9569 33.0405 41.3281C33.0457 41.8856 33.0516 42.5263 33.0516 43.284C33.0516 43.5356 33.0295 43.7072 32.9818 43.8348C32.9401 43.9462 32.8731 44.0407 32.7365 44.1288C32.4171 44.3348 31.7335 44.5 30.2702 44.5C25.5954 44.5 20.3869 41.7626 16.6642 36.6238L16.6642 36.6238L16.6608 36.6192C13.8345 32.8099 12.0391 29.4702 10.952 26.9466C10.4083 25.6845 10.0428 24.6288 9.81395 23.8226C9.58088 23.0013 9.5 22.4743 9.5 22.2549C9.5 21.979 9.5568 21.8267 9.65004 21.7332C9.74586 21.6371 9.98181 21.5017 10.5751 21.5017H15.169C15.6859 21.5017 15.9557 21.6085 16.1477 21.7771C16.3624 21.9656 16.5512 22.2914 16.7729 22.8886C17.9085 26.074 19.4342 29.06 20.8793 31.2572C21.6012 32.3549 22.3119 33.2694 22.9536 33.916C23.274 34.2388 23.5882 34.5062 23.8883 34.696C24.1799 34.8805 24.5058 35.0223 24.838 35.0223C25.0153 35.0223 25.2207 35.0037 25.4186 34.9171C25.6307 34.8244 25.7979 34.6699 25.9173 34.4609C26.1296 34.0894 26.1886 33.5425 26.1886 32.8337V26.3246V26.3103L26.1878 26.296C26.0957 24.6857 25.5977 23.7803 25.109 23.1403C24.999 22.9962 24.8906 22.867 24.7964 22.7547L24.7787 22.7336C24.6771 22.6124 24.5967 22.5154 24.5306 22.4233C24.4036 22.2463 24.3633 22.1331 24.3633 22.0131C24.3633 21.8206 24.5548 21.5 25.0323 21.5H32.2531C32.6538 21.5 32.7944 21.6011 32.8658 21.6947C32.9642 21.8239 33.0481 22.0879 33.0481 22.6269V31.3783C33.0481 32.4418 33.5888 33.1451 34.2814 33.1451C35.0954 33.1451 35.7288 32.6528 36.7718 31.6495L36.7818 31.6399L36.7912 31.6298C38.4859 29.809 39.9206 27.5088 40.9265 25.6794C41.4311 24.7618 41.8312 23.9566 42.1054 23.38C42.2426 23.0917 42.3484 22.8603 42.4201 22.7004C42.456 22.6204 42.4834 22.5583 42.502 22.5159L42.5231 22.4671L42.5287 22.4543Z" stroke="#413033"/>
</svg>
