<svg width="48" height="62" viewBox="0 0 48 62" fill="none" xmlns="http://www.w3.org/2000/svg">
<path d="M45.6111 16.7288C43.4661 9.81325 37.9102 4.21049 31.1119 2.10066C23.8565 -0.138097 16.2962 1.06919 10.377 5.44122C7.54046 7.53933 5.18449 10.2938 3.56696 13.4234C1.87909 16.6702 1 20.3038 1 23.9608C1 28.9423 2.58237 33.6895 5.55957 37.663L23.8565 61L42.1299 37.6864L42.1533 37.6512C46.6309 31.7086 47.885 24.078 45.6111 16.7288ZM23.8565 36.2681C17.0698 36.2681 11.5491 30.7474 11.5491 23.9608C11.5491 17.1742 17.0698 11.6535 23.8565 11.6535C30.6431 11.6535 36.1638 17.1742 36.1638 23.9608C36.1755 30.7474 30.6548 36.2681 23.8565 36.2681Z" fill="white" stroke="#413033" stroke-miterlimit="10"/>
</svg>
